<?xml version="1.0" standalone="no"?>
<!DOCTYPE svg PUBLIC "-//W3C//DTD SVG 20010904//EN"
 "http://www.w3.org/TR/2001/REC-SVG-20010904/DTD/svg10.dtd">
<svg version="1.0" xmlns="http://www.w3.org/2000/svg"
 width="700.000000pt" height="700.000000pt" viewBox="0 0 700.000000 700.000000"
 preserveAspectRatio="xMidYMid meet">
<metadata>
Created by potrace 1.14, written by Peter Selinger 2001-2017
</metadata>
<g transform="translate(0.000000,700.000000) scale(0.100000,-0.100000)"
fill="#000000" stroke="none">
<path d="M3180 6989 c-416 -40 -863 -170 -1251 -364 -798 -401 -1410 -1088
-1716 -1930 -266 -729 -280 -1559 -38 -2290 182 -553 485 -1035 897 -1430 532
-510 1179 -831 1908 -947 133 -21 176 -23 520 -23 340 1 389 3 520 23 659 104
1239 365 1743 787 637 533 1077 1313 1198 2120 29 193 44 636 29 850 -19 288
-76 574 -165 833 -310 905 -949 1623 -1816 2041 -374 180 -738 282 -1163 326
-158 16 -517 18 -666 4z m695 -574 c308 -41 564 -113 851 -241 95 -43 104 -49
109 -78 4 -17 4 -387 2 -821 -4 -824 -6 -869 -52 -1115 -62 -334 -199 -622
-384 -810 -63 -64 -184 -160 -202 -160 -9 0 -44 51 -724 1060 -956 1418 -1265
1884 -1256 1893 17 17 297 129 408 162 209 64 424 106 638 125 137 12 465 4
610 -15z m-2173 -972 c91 -131 267 -389 392 -573 125 -184 237 -348 249 -363
28 -37 18 -53 -64 -97 -142 -77 -346 -254 -472 -410 -220 -272 -383 -636 -456
-1014 -45 -231 -52 -339 -58 -895 l-6 -534 -36 43 c-356 425 -594 967 -666
1516 -109 831 163 1713 719 2337 75 83 220 227 230 227 3 0 78 -107 168 -237z
m4110 -118 c335 -425 558 -965 620 -1500 18 -158 15 -520 -6 -680 -76 -569
-282 -1062 -627 -1496 -82 -103 -309 -339 -326 -339 -8 0 -883 1282 -883 1294
0 3 40 32 88 65 254 171 431 345 584 575 201 305 313 632 368 1076 22 184 30
352 37 754 l6 420 34 -40 c19 -21 66 -79 105 -129z m-2029 -2958 c553 -822
1007 -1499 1009 -1506 8 -30 -412 -187 -634 -236 -648 -142 -1287 -75 -1892
201 -76 34 -140 65 -143 67 -9 10 -11 1406 -2 1587 18 371 69 622 173 858 93
212 301 476 406 515 8 3 29 6 46 6 31 1 53 -30 1037 -1492z"/>
</g>
</svg>
